<svg width="174" height="39" viewBox="0 0 174 39" fill="none" xmlns="http://www.w3.org/2000/svg">
<path d="M16.0429 26.8063C13.8666 25.998 11.628 25.8736 9.57602 26.4333C8.14584 26.8064 6.77784 27.5525 5.5342 28.4853L4.66364 29.2314L4.41492 29.4802L4.97455 29.9776C5.03673 29.9776 5.03674 30.0398 5.09892 30.102C5.22328 30.2264 5.34766 30.2885 5.5342 30.4129L5.90728 30.6616L6.28037 30.3507C6.34255 30.2885 6.46692 30.1642 6.59128 30.102C7.71055 29.1693 8.95419 28.5474 10.26 28.2365C11.9389 27.8013 13.7422 27.8634 15.5455 28.5474C17.0378 29.1071 20.0847 29.7911 23.7535 28.2365L23.8778 28.1743L24.0644 27.9878C24.0644 27.9256 24.1266 27.9256 24.1887 27.8634C24.4997 27.4903 24.8106 27.1173 25.0593 26.682L26.3029 24.7543L24.3131 25.8736C21.3906 27.4903 18.7167 27.8013 16.0429 26.8063Z" fill="#39BE00"/>
<path d="M7.52401 20.0907C9.20292 19.6554 11.0062 19.7176 12.8095 20.4016C14.7993 21.1478 19.8982 22.2049 25.6189 17.0438L26.5516 16.1111L26.6138 16.0489L26.8626 15.8002L26.7382 15.4893C26.676 15.2405 26.5516 14.9296 26.4273 14.6187L26.1164 13.7482L25.4945 14.37C25.4324 14.4944 25.308 14.5565 25.1836 14.6809C22.4476 17.4791 18.2193 20.3395 13.3691 18.5984C11.1927 17.79 8.95419 17.6656 6.90219 18.2253C4.91237 18.7849 3.17128 19.842 1.55455 21.3344V21.2722L0.621822 22.2671C0.621822 22.3293 0.559652 22.3293 0.49747 22.3915L0.310913 22.578L0.373099 22.8267C0.435281 23.1376 0.55964 23.4485 0.621822 23.7594L0.994917 24.7544L1.61674 23.946C1.67892 23.8216 1.80328 23.7595 1.86546 23.6351C3.17128 22.4536 4.97455 20.7747 7.52401 20.0907Z" fill="#39BE00"/>
<path d="M1.49238 18.9714C2.92256 17.4791 4.53928 16.5463 6.28037 16.0489C7.95928 15.6136 9.76255 15.6758 11.5658 16.3598C17.1622 18.4118 22.0124 15.054 24.1266 13.2507L24.9349 12.4424L25.2458 12.1936L24.9971 11.8205C24.8106 11.634 24.6862 11.3853 24.4997 11.1365L24.1266 10.6391L23.6913 11.0743C23.6291 11.1365 23.5047 11.2609 23.4426 11.3231C20.8309 13.8103 16.7891 16.3598 12.1876 14.6187C10.0113 13.8104 7.77273 13.686 5.72073 14.2456C4.41492 14.6187 3.17128 15.2405 1.92764 16.0489L0.621818 17.106C0.497455 17.2304 0.435273 17.2925 0.310909 17.4169L0.186557 17.5413V17.7278C0.124375 18.1631 0.124367 18.5984 0.0621856 18.9714L0 20.526L1.0571 19.4067C1.18146 19.2823 1.30583 19.0958 1.49238 18.9714Z" fill="#39BE00"/>
<path d="M17.8462 31.0347L17.7218 31.4078L17.8462 31.0347C17.6597 30.9725 17.5353 30.9103 17.3488 30.8482C15.1724 30.0398 12.9338 29.9155 10.8818 30.4751C10.4466 30.5995 10.0113 30.7238 9.57603 30.9103L8.08365 31.5944L7.71057 31.7809L8.95421 32.2162C9.3273 32.3405 9.70038 32.4649 10.0735 32.5893L10.26 32.6515L10.4466 32.5893C10.6331 32.5271 10.8197 32.4027 11.0062 32.4027C11.1306 32.4027 11.2549 32.3405 11.3793 32.2784C12.8717 31.9053 14.4884 31.9053 16.2295 32.4649C16.416 32.5271 16.5404 32.5893 16.7269 32.6515L17.0378 32.7758L17.2244 32.7136C17.6597 32.5893 18.1571 32.4649 18.5302 32.2784L20.2713 31.6565L18.468 31.2213C18.2815 31.1591 18.0327 31.0969 17.8462 31.0347Z" fill="#39BE00"/>
<path d="M27.36 18.1631L26.4273 19.0958C26.3029 19.2202 26.1786 19.3445 26.0542 19.4689C23.5048 21.894 19.4008 24.5056 14.7993 22.7645C12.6229 21.9562 10.3844 21.8318 8.3324 22.3915C6.40476 22.9511 4.66366 23.946 3.10911 25.4384L2.30076 26.3089L2.05203 26.6198L2.30076 26.9929C2.4873 27.2416 2.61167 27.4282 2.73604 27.6769L3.10911 28.2365L3.54439 27.6769C3.60657 27.6147 3.73093 27.4904 3.79312 27.4282C5.28548 25.8114 6.90221 24.8165 8.76766 24.3191C10.4466 23.8838 12.2498 23.946 14.0531 24.63C15.6077 25.1896 17.2244 25.3762 18.8411 25.1896C21.7015 24.8787 24.5619 23.262 26.676 21.4587C26.8004 21.3344 26.9247 21.2722 27.0491 21.1478L27.2357 20.9613V20.7747C27.2357 20.4016 27.2979 19.9664 27.2979 19.5933L27.36 18.1631Z" fill="#39BE00"/>
<path d="M3.73091 12.4424L3.54437 12.0693L3.73091 12.4424C4.104 12.2558 4.53929 12.1315 4.91238 12.0071C6.59129 11.5718 8.39456 11.634 10.1978 12.318C11.3793 12.7533 12.5607 12.9398 13.8666 12.9398C16.4782 12.9398 19.0898 12.0071 21.5149 10.2038L22.4476 9.45764L22.7585 9.20892L22.1989 8.77364C22.0124 8.58709 21.7636 8.40055 21.5149 8.27619L21.1418 8.02747L20.8309 8.27619C20.7065 8.33837 20.6444 8.46273 20.52 8.52491C17.2244 11.0122 13.9287 11.6962 10.8197 10.5147C8.58111 9.70637 6.34255 9.51983 4.104 10.2038C3.91746 10.266 3.73091 10.3282 3.48219 10.3904L3.35783 10.4526L3.17128 10.6391C3.17128 10.7013 3.10911 10.7013 3.04692 10.7635C2.7982 11.1366 2.48728 11.4475 2.23855 11.8206L1.0571 13.6238L2.98474 12.6289C3.29565 12.6289 3.54436 12.5046 3.73091 12.4424Z" fill="#39BE00"/>
<path d="M8.82982 8.21399L9.01636 8.27617C9.82472 8.58708 11.0684 8.89799 12.6229 8.89799C14.2396 8.89799 15.7942 8.5249 17.3487 7.90308L19.2764 6.97035L17.9706 6.53509C17.5975 6.41073 17.2244 6.28636 16.7891 6.22418H16.6025L16.416 6.28635C16.2295 6.34853 16.0429 6.47291 15.8564 6.53509C13.9909 7.21909 12.1255 7.34345 10.3222 6.846C10.1356 6.78382 9.94909 6.72163 9.76255 6.65944L9.57601 6.59726L9.38945 6.65944C9.01636 6.78381 8.64328 6.90818 8.27019 7.09472L6.84 7.71654L8.33238 8.1518C8.45674 8.08962 8.64328 8.15181 8.82982 8.21399Z" fill="#39BE00"/>
<path d="M40.476 30V18.492H37.76V15.86H41.456L40.476 16.756V14.6C40.476 12.8453 40.9146 11.52 41.792 10.624C42.688 9.72798 43.9853 9.27998 45.684 9.27998C46.0946 9.27998 46.524 9.30798 46.972 9.36398C47.4386 9.41998 47.84 9.52265 48.176 9.67198V12.416C47.9333 12.3227 47.644 12.248 47.308 12.192C46.972 12.136 46.6453 12.108 46.328 12.108C45.6 12.108 45.0213 12.3226 44.592 12.752C44.1626 13.1627 43.948 13.8347 43.948 14.768V16.476L43.444 15.86H53.272V30H49.772V18.492H43.976V30H40.476ZM49.576 13.2V9.78398H53.468V13.2H49.576ZM57.0787 30V19.388C57.0787 18.8093 57.06 18.2213 57.0227 17.624C56.9853 17.0267 56.9293 16.4387 56.8547 15.86H60.2427L60.5227 18.66H60.1867C60.6347 17.6707 61.2973 16.9147 62.1747 16.392C63.052 15.8507 64.0693 15.58 65.2267 15.58C66.888 15.58 68.1387 16.0467 68.9787 16.98C69.8187 17.9133 70.2387 19.3693 70.2387 21.348V30H66.7387V21.516C66.7387 20.3773 66.5147 19.5653 66.0667 19.08C65.6373 18.576 64.984 18.324 64.1067 18.324C63.024 18.324 62.1653 18.66 61.5307 19.332C60.896 20.004 60.5787 20.9 60.5787 22.02V30H57.0787ZM79.9977 30.28C78.3177 30.28 77.0484 29.8413 76.1897 28.964C75.3311 28.0867 74.9017 26.7707 74.9017 25.016V18.492H72.1857V15.86H74.9017V12.248L78.4017 11.352V15.86H82.1817V18.492H78.4017V24.792C78.4017 25.7627 78.5884 26.444 78.9617 26.836C79.3351 27.228 79.8484 27.424 80.5017 27.424C80.8564 27.424 81.1551 27.396 81.3977 27.34C81.6591 27.284 81.9111 27.2093 82.1537 27.116V29.888C81.8364 30.0187 81.4817 30.112 81.0897 30.168C80.7164 30.2427 80.3524 30.28 79.9977 30.28ZM84.5311 30V19.472C84.5311 18.8747 84.5125 18.268 84.4751 17.652C84.4565 17.036 84.4098 16.4387 84.3351 15.86H87.7231L88.1151 19.724H87.5551C87.7418 18.7907 88.0498 18.016 88.4791 17.4C88.9271 16.784 89.4685 16.3267 90.1031 16.028C90.7378 15.7293 91.4285 15.58 92.1751 15.58C92.5111 15.58 92.7818 15.5987 92.9871 15.636C93.1925 15.6547 93.3978 15.7013 93.6031 15.776L93.5751 18.856C93.2205 18.7067 92.9125 18.6133 92.6511 18.576C92.4085 18.5387 92.1005 18.52 91.7271 18.52C90.9245 18.52 90.2431 18.688 89.6831 19.024C89.1418 19.36 88.7311 19.8267 88.4511 20.424C88.1898 21.0213 88.0591 21.7027 88.0591 22.468V30H84.5311ZM100.875 30.28C99.6426 30.28 98.5599 29.9907 97.6266 29.412C96.6933 28.8147 95.9653 27.9653 95.4426 26.864C94.9199 25.7627 94.6586 24.4467 94.6586 22.916C94.6586 21.3853 94.9199 20.0787 95.4426 18.996C95.9653 17.8947 96.6933 17.0547 97.6266 16.476C98.5599 15.8787 99.6426 15.58 100.875 15.58C102.069 15.58 103.115 15.8787 104.011 16.476C104.925 17.0547 105.532 17.8387 105.831 18.828H105.523L105.831 15.86H109.191C109.135 16.4387 109.079 17.0267 109.023 17.624C108.985 18.2213 108.967 18.8093 108.967 19.388V30H105.495L105.467 27.088H105.803C105.504 28.0587 104.897 28.8333 103.983 29.412C103.068 29.9907 102.032 30.28 100.875 30.28ZM101.855 27.592C102.956 27.592 103.843 27.2093 104.515 26.444C105.187 25.66 105.523 24.484 105.523 22.916C105.523 21.348 105.187 20.1813 104.515 19.416C103.843 18.6507 102.956 18.268 101.855 18.268C100.753 18.268 99.8666 18.6507 99.1946 19.416C98.5226 20.1813 98.1866 21.348 98.1866 22.916C98.1866 24.484 98.5133 25.66 99.1666 26.444C99.8386 27.2093 100.735 27.592 101.855 27.592ZM119.274 30.28C117.818 30.28 116.539 29.9813 115.438 29.384C114.355 28.7867 113.515 27.9373 112.918 26.836C112.321 25.716 112.022 24.3907 112.022 22.86C112.022 21.3293 112.321 20.0227 112.918 18.94C113.534 17.8573 114.383 17.0267 115.466 16.448C116.549 15.8693 117.818 15.58 119.274 15.58C120.207 15.58 121.113 15.7293 121.99 16.028C122.886 16.308 123.614 16.7187 124.174 17.26L123.11 19.696C122.606 19.2293 122.037 18.884 121.402 18.66C120.786 18.4173 120.179 18.296 119.582 18.296C118.331 18.296 117.351 18.688 116.642 19.472C115.951 20.256 115.606 21.3947 115.606 22.888C115.606 24.3813 115.951 25.5293 116.642 26.332C117.351 27.1347 118.331 27.536 119.582 27.536C120.161 27.536 120.758 27.424 121.374 27.2C122.009 26.976 122.587 26.6307 123.11 26.164L124.174 28.572C123.595 29.1133 122.858 29.5333 121.962 29.832C121.085 30.1307 120.189 30.28 119.274 30.28ZM126.887 30V9.39198H130.387V21.88H130.443L136.183 15.86H140.411L133.271 23.336L133.299 21.936L140.915 30H136.575L130.443 23.672H130.387V30H126.887ZM142.3 30V26.108H146.22V30H142.3ZM155.015 30.28C153.783 30.28 152.701 29.9907 151.767 29.412C150.834 28.8147 150.106 27.9653 149.583 26.864C149.061 25.7627 148.799 24.4467 148.799 22.916C148.799 21.3853 149.061 20.0787 149.583 18.996C150.106 17.8947 150.834 17.0547 151.767 16.476C152.701 15.8787 153.783 15.58 155.015 15.58C156.21 15.58 157.255 15.8787 158.151 16.476C159.066 17.0547 159.673 17.8387 159.971 18.828H159.663L159.971 15.86H163.331C163.275 16.4387 163.219 17.0267 163.163 17.624C163.126 18.2213 163.107 18.8093 163.107 19.388V30H159.635L159.607 27.088H159.943C159.645 28.0587 159.038 28.8333 158.123 29.412C157.209 29.9907 156.173 30.28 155.015 30.28ZM155.995 27.592C157.097 27.592 157.983 27.2093 158.655 26.444C159.327 25.66 159.663 24.484 159.663 22.916C159.663 21.348 159.327 20.1813 158.655 19.416C157.983 18.6507 157.097 18.268 155.995 18.268C154.894 18.268 154.007 18.6507 153.335 19.416C152.663 20.1813 152.327 21.348 152.327 22.916C152.327 24.484 152.654 25.66 153.307 26.444C153.979 27.2093 154.875 27.592 155.995 27.592ZM166.918 30V15.86H170.418V30H166.918ZM166.722 13.2V9.78398H170.614V13.2H166.722Z" fill="white"/>
</svg>
